# xmcd CD database file
#
# Track frame offsets:
#	150
#	13585
#	26117
#	39242
#	52900
#	68157
#	80125
#	90605
#	105460
#	118527
#	130202
#	143677
#	157042
#	169455
#	184567
#	197167
#
# Disc length: 2826 seconds
#
# Revision: 0
# Processed by: cddbd v1.5.2PL0 Copyright (c) Steve Scherf et al.
# Submitted via: CDex 1.70beta2
#
DISCID=d40b0810
DTITLE=Nat King Cole - This Is Nat King Cole!
DYEAR=1953
DGENRE=Jazz
TTITLE0=Dreams Can Tell A Lie
TTITLE1=I Just Found Out About Love
TTITLE2=Too Young To Go Steady
TTITLE3=Forgive My Heart
TTITLE4=Annabelle
TTITLE5=Nothing Ever Changes My Love For You
TTITLE6=To The Ends Of The Earth
TTITLE7=I'm Gonna Laugh You Right Out Of My Life
TTITLE8=Someone You Love
TTITLE9=Love Me As Though There Were No Tomorrow
TTITLE10=That's All
TTITLE11=Never Let Me Go
TTITLE12=Bonus Track: Small Towns Are Smile Towns
TTITLE13=Bonus Track: Don't Hurt The Girl
TTITLE14=Bonus Track: My Flaming Heart
TTITLE15=Bonus Track: United
EXTD=YEAR: 1953
EXTT0=
EXTT1=
EXTT2=
EXTT3=
EXTT4=
EXTT5=
EXTT6=
EXTT7=
EXTT8=
EXTT9=
EXTT10=
EXTT11=
EXTT12=
EXTT13=
EXTT14=
EXTT15=
PLAYORDER=
